<svg xmlns="http://www.w3.org/2000/svg" width="118.663" height="55.505" viewBox="0 0 118.663 55.505"><defs><style>.a{fill:#535d6a;stroke:rgba(0,0,0,0);stroke-miterlimit:10;}</style></defs><g transform="translate(89.5 -8.5)"><path class="a" d="M77.827,53.268a3.3,3.3,0,0,1,0-4.439,2.806,2.806,0,0,1,4.152,0,3.3,3.3,0,0,1,0,4.439,2.8,2.8,0,0,1-4.152,0Zm.347-4.068a2.746,2.746,0,0,0,0,3.7,2.331,2.331,0,0,0,3.459,0,2.751,2.751,0,0,0,0-3.7,2.334,2.334,0,0,0-3.459,0Zm-35.8,4.068a3.294,3.294,0,0,1,0-4.439,2.806,2.806,0,0,1,4.152,0,3.294,3.294,0,0,1,0,4.439,2.8,2.8,0,0,1-4.152,0Zm.347-4.068a2.746,2.746,0,0,0,0,3.7,2.33,2.33,0,0,0,3.458,0,2.746,2.746,0,0,0,0-3.7,2.333,2.333,0,0,0-3.458,0Zm-15.89,4.068a3.294,3.294,0,0,1,0-4.439,2.806,2.806,0,0,1,4.152,0,3.294,3.294,0,0,1,0,4.439,2.8,2.8,0,0,1-4.152,0ZM27.18,49.2a2.746,2.746,0,0,0,0,3.7,2.33,2.33,0,0,0,3.458,0,2.746,2.746,0,0,0,0-3.7,2.333,2.333,0,0,0-3.458,0ZM11.494,53.268a3.3,3.3,0,0,1,0-4.439,2.806,2.806,0,0,1,4.152,0,3.3,3.3,0,0,1,0,4.439,2.8,2.8,0,0,1-4.152,0Zm.347-4.068a2.744,2.744,0,0,0,0,3.7,2.33,2.33,0,0,0,3.457,0,2.744,2.744,0,0,0,0-3.7,2.332,2.332,0,0,0-3.457,0Zm81.24,4.916V48h.484v5.6h2.15v.517Zm17.99,0V47.995h2.947v.517h-2.464V50.8h2.464v.516h-2.464V53.6h2.464v.515Zm-10.356,0V47.995h2.947v.517H101.2V50.8h2.464v.516H101.2V53.6h2.464v.515Zm7.781,0-1.237-2.061h-.907v2.059h-.484V48h1.543a1.881,1.881,0,0,1,1.139.594,2.13,2.13,0,0,1,0,2.874,1.866,1.866,0,0,1-.769.505l1.3,2.148Zm-2.144-2.581h.858a1.3,1.3,0,0,0,.995-.442,1.489,1.489,0,0,0,.415-1.068,1.514,1.514,0,0,0-.415-1.069,1.322,1.322,0,0,0-1-.44h-.858Zm-8.482,2.581V47.994h.483v6.121Zm-7.635,0V47.994h.482v6.121Zm-5.193,0V48h1.071a1.048,1.048,0,0,1,.792.35A1.174,1.174,0,0,1,86.881,50a1.57,1.57,0,0,1,.624.472,2.143,2.143,0,0,1,.579,1.505A2.211,2.211,0,0,1,87.5,53.5a1.742,1.742,0,0,1-1.212.607v0l-.085,0Zm.484-.515h.719a1.378,1.378,0,0,0,.9-.479,1.644,1.644,0,0,0,.438-1.141,1.592,1.592,0,0,0-.437-1.128,1.4,1.4,0,0,0-1.054-.467h-.564Zm0-3.753H86.2a.623.623,0,0,0,.386-.184.635.635,0,0,0,.183-.475.666.666,0,0,0-.184-.486.622.622,0,0,0-.466-.19h-.587ZM74.267,54.115V49.033l-2.03,3.753L70.2,49.032v5.083h-.483l0-5.984L69.647,48H70.2l.025.046,2.012,3.724L74.271,48h.553l-.075.142v5.979Zm-7.349,0V49.033L64.89,52.786l-2.033-3.754v5.083h-.482l0-5.984L62.3,48h.553l.026.046,2.012,3.724L66.923,48h.554l-.075.142v5.979Zm-7.4,0V47.994H60v6.121Zm-6.689,0-.023-.044-2.725-5.039v5.083h-.484V48h.479l2.719,5.032V48h.483v6.12Zm-14.067,0V47.994h.483v6.121Zm-3.9,0v-5.6H33.449V48h3.3v.516H35.338v5.6Zm-11.585,0V49.033l-2.029,3.753-2.032-3.754v5.083h-.483l0-5.984L18.651,48H19.2l.025.046,2.012,3.724L23.275,48h.554l-.075.142v5.979Zm-15.121,0L6.912,52.055H6v2.059H5.52V48H7.064a1.878,1.878,0,0,1,1.139.594,2.133,2.133,0,0,1,0,2.874,1.858,1.858,0,0,1-.769.505l1.3,2.148ZM6,51.535h.858a1.3,1.3,0,0,0,1-.442,1.584,1.584,0,0,0,0-2.137,1.309,1.309,0,0,0-1-.44H6ZM.319,54.115V48H1.862A1.885,1.885,0,0,1,3,48.589a2.135,2.135,0,0,1,0,2.874,1.78,1.78,0,0,1-1.342.594H.8v2.059ZM.8,51.535h.859a1.306,1.306,0,0,0,1-.442,1.493,1.493,0,0,0,.414-1.068,1.512,1.512,0,0,0-.414-1.069,1.312,1.312,0,0,0-1-.44H.8Zm101.45-4.166-1.073-.878h.867l.716.878Zm-16.695-13.8a6.957,6.957,0,1,1,13.891,0,6.957,6.957,0,1,1-13.891,0Zm2.84,0c0,2.681,1.659,4.728,4.1,4.728s4.1-2.048,4.1-4.728-1.657-4.728-4.1-4.728S88.4,30.888,88.4,33.569Zm-19.614,0a6.957,6.957,0,1,1,13.891,0,6.957,6.957,0,1,1-13.891,0Zm2.84,0c0,2.681,1.659,4.728,4.1,4.728s4.1-2.048,4.1-4.728-1.658-4.728-4.1-4.728S71.623,30.888,71.623,33.569Zm-61.935,0c0-4.37,3.078-7.347,6.866-7.347S23.42,29.2,23.42,33.569s-3.078,7.347-6.866,7.347S9.688,37.939,9.688,33.569Zm.828,0c0,3.758,2.586,6.567,6.038,6.567s6.037-2.809,6.037-6.567S20.006,27,16.553,27,10.515,29.811,10.515,33.569Zm51.654,7.306-3.02-6.926c-.354-.8-.75-2.132-.75-2.132s-.414,1.331-.77,2.132l-3.136,6.926h-.276L49.265,26.391h2.92l1.953,5.764c.336.992.711,2.6.711,2.6a19.1,19.1,0,0,1,.829-2.6l2.584-5.89h.276l2.624,5.89a19.1,19.1,0,0,1,.829,2.6s.375-1.606.71-2.6l1.933-5.764h2.683L62.445,40.875Zm40.614-.126V26.391h4.124a6.822,6.822,0,0,1,7.063,7.179,6.812,6.812,0,0,1-7.063,7.179Zm2.764-2.6h1.221c2.981,0,4.343-1.9,4.343-4.581s-1.362-4.581-4.343-4.581h-1.221Zm-77.98,2.6V26.391h7.814v.76h-7v7.686h6.351v.78H28.378v5.132Zm-27.175,0V26.391H1.2v13.6H7.653v.761Zm42.212,0V27.15H38.342v-.76h9.332v.76h-4.26v13.6Zm70.935-16.921a2.067,2.067,0,1,1,2.062,2.206A2.139,2.139,0,0,1,113.539,23.827Zm.228,0a1.838,1.838,0,1,0,1.834-1.961A1.9,1.9,0,0,0,113.767,23.827Zm2.4,1.3a3.7,3.7,0,0,1-.156-.617c-.072-.355-.2-.49-.488-.5h-.295v1.118h-.309V22.581a3.443,3.443,0,0,1,.6-.053.946.946,0,0,1,.7.211.711.711,0,0,1-.26,1.148V23.9a.654.654,0,0,1,.352.522,4.2,4.2,0,0,0,.185.708Zm-.939-2.313v.942h.321a.488.488,0,0,0,.545-.49c0-.333-.227-.479-.556-.479A1.313,1.313,0,0,0,115.228,22.815ZM98.994,15.94l-.5-.543.057.011a9.734,9.734,0,0,1-2.074-6.038C96.479,4.2,100.4,0,105.23,0s8.756,4.2,8.756,9.369a9.718,9.718,0,0,1-2.3,6.324l-.057.065.046-.007-.532.522a8.344,8.344,0,0,1-12.154-.333Zm6.237,2.31a7.925,7.925,0,0,0,5.035-1.821,35.848,35.848,0,0,1-3.689.181c-1.225-.011-2.664-.039-4.086-.161-.859-.062-1.739-.166-2.628-.311A7.9,7.9,0,0,0,105.231,18.251Zm-1.926-6.9-.006,4.409-2.552.014c.6.081,1.193.147,1.775.188h0c1.407.121,2.837.149,4.051.161a32.129,32.129,0,0,0,4.387-.271l.568-.08-4.957-.029-1.352.007V11.312a.024.024,0,0,0-.012-.019l-.049.006H103.3ZM98.99,9.041h1.324V15.41l.025.045.01-.023.006-1.354h2.165a.023.023,0,1,0,0-.045h-2.165V9.041h12.653V9H98.99Zm-2.053.328a9.213,9.213,0,0,0,2.116,5.925l.806,0V9.528H98.533V8.509h14.932V9.528H100.812V12.88a.433.433,0,0,1,.194-.045h1.513a.46.46,0,0,1,.328.138l0-1.573a.33.33,0,0,1-.014-.093.481.481,0,0,1,.464-.5h1.831a.289.289,0,0,1,.07-.009.494.494,0,0,1,.477.509v3.948l.9,0,4.847.029a9.213,9.213,0,0,0,2.11-5.916c0-4.9-3.723-8.881-8.3-8.881S96.937,4.473,96.937,9.369Zm3.875,5.918,2.032-.013v-.846a.463.463,0,0,1-.327.137h-1.706Zm.174-1.941a.022.022,0,0,0,.02.022h1.513a.025.025,0,0,0,.025-.022.026.026,0,0,0-.025-.024h-1.513A.024.024,0,0,0,100.986,13.346ZM72.729,9.369C72.729,4.2,76.656,0,81.483,0s8.758,4.2,8.758,9.369a9.723,9.723,0,0,1-2.163,6.16l.049-.009-.533.555a8.424,8.424,0,0,1-6.111,2.662C76.656,18.738,72.729,14.535,72.729,9.369Zm8.754,8.881A7.917,7.917,0,0,0,86.7,16.276a32.964,32.964,0,0,1-4.691.334c-1.06-.012-2.2-.04-3.353-.163a20.27,20.27,0,0,1-2.647-.411A7.958,7.958,0,0,0,81.483,18.251ZM77.9,15.769l-.7,0c.5.083,1,.147,1.492.189,1.143.12,2.268.148,3.313.161a32.225,32.225,0,0,0,4.754-.35l-4.759-.03-4.063.027V10.586H77.9Zm-4.715-6.4A9.207,9.207,0,0,0,75.312,15.3a.171.171,0,0,1,.035,0l2.1-.012V10.2l-3.041.03V9.2l15.22.07-.161.8-3.911.04a7.256,7.256,0,0,1,1.7.419l.783.308-.821.16a8.189,8.189,0,0,1-2.227.071,8.738,8.738,0,0,1-1.879-.367.505.505,0,0,1,.166.338.492.492,0,0,1-.431.535l-2.7.216,1,2.782-.006.058c-.006.053-.009.106-.014.158a3.373,3.373,0,0,1-.055.445l0,.024.953-.006,5.663.035a9.218,9.218,0,0,0,2.116-5.922c0-4.9-3.723-8.882-8.3-8.882S73.186,4.471,73.186,9.369Zm5.212.817v5.092l2.166-.014c-.056-.053-.109-.106-.161-.159s-.082-.082-.124-.122l-.043-.041-1.059-2.984.006-.059c.006-.051.009-.1.014-.155a.5.5,0,0,1,.236-.887l3.342-.267h.008l-.764-.3.734-.143Zm1.244,1.708.981,2.765c.014.012.027.027.04.039l0-.056-.988-2.764-.035-.034C79.643,11.861,79.642,11.878,79.642,11.894Zm-.174-.55.075.011,3.265-.263Zm5.556-.757c.2.017.423.032.65.038-.226-.035-.444-.061-.651-.082s-.428-.033-.66-.039C84.591,10.541,84.813,10.566,85.024,10.587ZM74.86,9.734,77.747,9.7,74.86,9.692ZM48.485,9.369C48.485,4.2,52.413,0,57.24,0S66,4.2,66,9.369s-3.928,9.369-8.755,9.369S48.485,14.535,48.485,9.369Zm.458,0c0,4.9,3.722,8.881,8.3,8.881s8.3-3.985,8.3-8.881S61.816.487,57.24.487,48.942,4.471,48.942,9.369Zm-24.7,0C24.243,4.2,28.169,0,33,0s8.756,4.2,8.756,9.369S37.825,18.738,33,18.738,24.243,14.535,24.243,9.369ZM33,18.251c4.577,0,8.3-3.985,8.3-8.881S37.574.487,33,.487s-8.3,3.984-8.3,8.882c0,.067,0,.132,0,.2l.665-.419a7.283,7.283,0,0,1,1.818-.781.414.414,0,0,1,.216-.006,7.66,7.66,0,0,1,2.171.783l.7.4-.8.055a7.3,7.3,0,0,1-2.168-.227,6.9,6.9,0,0,1-1.835.227L24.7,9.579A8.6,8.6,0,0,0,33,18.251ZM27.359,8.886c.222.053.459.106.71.148-.27-.082-.527-.143-.757-.194-.132.038-.275.082-.424.132.131-.028.254-.057.368-.086l.051-.011ZM0,9.369C0,4.2,3.928,0,8.755,0S17.51,4.2,17.51,9.369s-3.927,9.369-8.755,9.369S0,14.535,0,9.369Zm.456,0c0,4.9,3.723,8.881,8.3,8.881s8.3-3.985,8.3-8.881a9.322,9.322,0,0,0-.863-3.941l-.435.171a4.351,4.351,0,0,1-1.625.26h-.007a4.4,4.4,0,0,1-1.616-.305l-.556-.236.562-.219a4.43,4.43,0,0,1,1.622-.26,4.34,4.34,0,0,1,1.625.305l.368.156A8.262,8.262,0,0,0,8.755.487C4.179.487.456,4.471.456,9.369ZM13.671,5.344c.162.016.318.024.464.029s.31,0,.475-.017c-.166-.017-.326-.025-.477-.029S13.833,5.331,13.671,5.344Zm41.173,11.1a9.252,9.252,0,0,1-2.278-.59l-.023-.011A.266.266,0,0,1,52.4,15.7a.309.309,0,0,1,0-.224.268.268,0,0,1,.241-.179l1.344-.013V10.1h1.225v5.174l1.894-.018,4.463.042a.264.264,0,0,1,.19.087.3.3,0,0,1,.077.2.284.284,0,0,1-.168.259l-.011,0a9.42,9.42,0,0,1-2.288.592,16.522,16.522,0,0,1-2.255.166A16.361,16.361,0,0,1,54.844,16.446Zm-.4-.678-.549.006c.31.074.645.136,1.017.19a15.864,15.864,0,0,0,2.2.159,16.085,16.085,0,0,0,2.192-.161c.368-.054.7-.115,1.01-.188l-3.209-.03-2.351.022V10.587h-.313Zm-23.536.678a9.253,9.253,0,0,1-2.28-.59l-.027-.012a.268.268,0,0,1-.134-.143.306.306,0,0,1,0-.222A.266.266,0,0,1,28.7,15.3l2.855-.028.052-1.829-.459-1.988-3.431-1.424.139-.464,3.541.963,3.768-.6-2-.518.067-.48,2.785.177a.461.461,0,0,1,.33.171.528.528,0,0,1,.119.37.494.494,0,0,1-.009.075l.728-.115.1.475L32.513,11.56l.594,1.637.2,2.061,4.324.041a.278.278,0,0,1,.263.291.284.284,0,0,1-.162.258l-.009,0a9.385,9.385,0,0,1-2.294.595,16.865,16.865,0,0,1-2.255.166A16.315,16.315,0,0,1,30.906,16.446Zm.471-5.423.16.067.531,2.3L32,15.753l-2.05.02c.311.073.646.136,1.02.19a15.857,15.857,0,0,0,2.2.159,16.242,16.242,0,0,0,2.193-.161c.368-.053.7-.115,1.01-.188l-3.209-.03-.27,0-.242-2.475-.749-2.03,2-.62ZM37.543,15.4h0l.015-.007ZM35.99,9.639c.018,0,.026-.009.026-.022L36,9.593l-.242-.015ZM6.539,16.446a9.273,9.273,0,0,1-2.278-.589l-.022-.011A.266.266,0,0,1,4.1,15.7a.3.3,0,0,1,0-.221.266.266,0,0,1,.241-.182l1.829-.017,1.35-3.671-.329-2.1L5.205,7.744,3.029,7.022l.115-.471,2.348.528.078.051L7.623,8.635l.454-.2-.547.062L7.9,8.031A4.322,4.322,0,0,1,9.158,7l.006,0a4.068,4.068,0,0,1,1.5-.522l.566-.062-.37.463a3.535,3.535,0,0,1-.563.56l1.735-.775.157.344,2.733-.822.16.456-2.65,1.348a.449.449,0,0,1-.365.02A.482.482,0,0,1,11.8,7.75a.538.538,0,0,1-.027-.366L8.293,9.49l.6,2.182-.055.222-.822,3.368.783-.006,4.462.041a.289.289,0,0,1,.1.55l-.01.006a9.381,9.381,0,0,1-2.289.592,16.913,16.913,0,0,1-2.257.166A16.226,16.226,0,0,1,6.539,16.446Zm1.068-7.19.38,2.406-1.509,4.1-.888.007c.31.074.644.137,1.015.19a16.208,16.208,0,0,0,2.2.16A16.358,16.358,0,0,0,11,15.961c.37-.053.7-.115,1.01-.188L8.8,15.743l-1.375.011.994-4.071-.009-.03-.658-2.4.94-.569-1.123.5-.205-.15ZM9.373,7.435c-.123.072-.252.15-.381.24.143-.064.278-.134.4-.2s.252-.15.384-.24C9.636,7.3,9.5,7.366,9.373,7.435Zm2.848.072a.028.028,0,0,0-.013.034l.028.011.234-.119Zm70.669,7.328L81.9,12.362a.525.525,0,0,1,.252-.67.44.44,0,0,1,.366,0,.484.484,0,0,1,.258.274l.994,2.471a.529.529,0,0,1-.252.671.431.431,0,0,1-.187.041A.477.477,0,0,1,82.891,14.834Zm-.571-2.662.99,2.471a.021.021,0,0,0,.02.014l.007,0a.023.023,0,0,0,.012-.03l-.992-2.472h0l-.028-.011C82.317,12.146,82.316,12.161,82.32,12.172Zm2.442,2.371-.631-.124.563-.33a5.089,5.089,0,0,1,1.665-.571,4.954,4.954,0,0,1,1.755-.017l.626.124-.558.33a4.993,4.993,0,0,1-1.667.569h0a6.439,6.439,0,0,1-.987.087A3.9,3.9,0,0,1,84.761,14.543ZM86.431,14c-.153.029-.315.063-.483.106.172-.015.338-.038.493-.062s.325-.063.5-.108C86.762,13.953,86.592,13.975,86.431,14Zm19.828.564a.512.512,0,0,1,0-1.021h2.8a.534.534,0,0,1-.038-.2.5.5,0,0,1,.479-.511h2.267a.512.512,0,0,1,0,1.021h-1.413a.523.523,0,0,1,.038.2.5.5,0,0,1-.476.51Zm-.019-.51a.021.021,0,0,0,.019.022h3.656a.023.023,0,0,0,0-.045H106.26A.021.021,0,0,0,106.24,14.055Zm3.239-.709a.02.02,0,0,0,.02.022h2.267a.022.022,0,0,0,.022-.022.023.023,0,0,0-.022-.024H109.5A.021.021,0,0,0,109.48,13.346Zm-48.245.631a4.03,4.03,0,0,1-1.045-1.149c-.072-.117-.145-.242-.216-.376a.478.478,0,0,1-.466.279c-.027,0-.052-.009-.075-.014l-2.845-.8.077-.479,2.924.268a.428.428,0,0,1,.085.017,3.121,3.121,0,0,1-.09-.374l-.095-.519a16.225,16.225,0,0,1-2.466.079l-1.271-.069,1.214-.407a20.547,20.547,0,0,1,6.591-.894l1.261.072-1.206.4a18.258,18.258,0,0,1-3.264.715h0c-.258.033-.528.066-.81.095l.394.275a3.983,3.983,0,0,1,1.046,1.149,4.309,4.309,0,0,1,.608,1.473l.1.566Zm-.667-1.422c.075.114.156.234.248.354-.069-.135-.143-.263-.217-.385s-.162-.241-.253-.36C60.418,12.3,60.493,12.435,60.568,12.556Zm-1.025-.312a.023.023,0,0,0,.028-.02h0l-.021-.027-.257-.023Zm.742-2.038c-.314.045-.647.1-.992.158.349-.033.683-.074,1-.113s.659-.1,1.008-.159C60.945,10.125,60.605,10.165,60.284,10.206Zm24.9,1.889a.522.522,0,0,1,.133-.359.458.458,0,0,1,.336-.158l2.754-.051.014,0a.512.512,0,0,1-.012,1.02l-2.74.05A.5.5,0,0,1,85.186,12.1Zm.477-.027-.02.023a.022.022,0,0,0,.021.022l2.737-.051a.024.024,0,0,0,.023-.025c0-.006-.014-.015-.04-.02Zm21.98.106a.512.512,0,0,1,0-1.022h4.322a.512.512,0,0,1,0,1.022Zm-.022-.511a.024.024,0,0,0,.022.023h4.322a.025.025,0,0,0,.02-.023.023.023,0,0,0-.02-.023h-4.322A.024.024,0,0,0,107.62,11.664Zm-71.376-.279-.731-.018.612-.43a6.522,6.522,0,0,1,1.8-.84,6.437,6.437,0,0,1,1.95-.309l.726.019L40,10.234a6.438,6.438,0,0,1-1.8.841h0a6.528,6.528,0,0,1-1.836.31Zm1.81-.82c-.171.056-.354.116-.539.188.194-.044.378-.1.551-.147s.359-.117.549-.19C38.417,10.462,38.229,10.513,38.053,10.565ZM109.872,11a.512.512,0,0,1,0-1.021h2.472V11Zm-.02-.511a.02.02,0,0,0,.02.023h2.017V10.47h-2.017A.02.02,0,0,0,109.851,10.493ZM49.752,9.2l7.919.117,1.152.608-9.071.306Zm.456.529.7-.024-.7-.011Zm10.3-.7a6.833,6.833,0,0,1,1.535-1.316,6.424,6.424,0,0,1,1.8-.845l.706-.184-.479.582a6.827,6.827,0,0,1-1.531,1.317l-.006,0a6.512,6.512,0,0,1-1.8.842l-.709.187Zm1.771-.9c-.153.1-.315.212-.477.334.176-.1.345-.2.5-.3s.32-.217.485-.342C62.608,7.93,62.438,8.034,62.28,8.133Zm-31.557.843a3.033,3.033,0,0,1-1.174-.733l-.336-.354.469-.062a2.868,2.868,0,0,1,1.34.181,3.06,3.06,0,0,1,1.173.732l.341.356-.474.061a2.462,2.462,0,0,1-.3.019A3.193,3.193,0,0,1,30.723,8.977Zm.145-.462c.109.037.226.074.349.1-.117-.058-.232-.106-.343-.149s-.231-.076-.359-.106A3.679,3.679,0,0,0,30.869,8.514Zm25.552.571a8.073,8.073,0,0,1-2.188-.477L53.452,8.3l.819-.16A8.051,8.051,0,0,1,56.5,8.068H56.5a8.238,8.238,0,0,1,2.182.476l.785.309-.822.16a6.568,6.568,0,0,1-1.272.114C57.038,9.128,56.717,9.109,56.421,9.085ZM56.46,8.6c.2.017.422.032.649.038-.224-.035-.442-.061-.647-.082s-.433-.032-.665-.04C56.026,8.552,56.25,8.577,56.46,8.6Zm30.829.373A4.128,4.128,0,0,1,85.85,8.3l-.459-.354.561-.086a3.965,3.965,0,0,1,1.558.119h.009a4.071,4.071,0,0,1,1.431.672L89.4,9l-.555.086a3.036,3.036,0,0,1-.47.036A4.471,4.471,0,0,1,87.289,8.972ZM87.4,8.5c.135.033.28.066.435.091-.147-.054-.292-.1-.427-.138s-.276-.064-.427-.088C87.121,8.418,87.263,8.461,87.4,8.5ZM51.272,7.627l-.812-.195.793-.276a8.079,8.079,0,0,1,2.2-.385h0a8.075,8.075,0,0,1,2.22.163l.815.2-.8.274a8.212,8.212,0,0,1-2.195.386c-.18.007-.366.013-.56.013A7.211,7.211,0,0,1,51.272,7.627Zm2.2-.37c-.211.014-.435.031-.665.057.232,0,.456,0,.667-.011s.422-.029.647-.056h-.071C53.852,7.246,53.658,7.251,53.475,7.257Zm-21.786.479L26.645,7.46V6.973l5.046-.258a.5.5,0,0,1,.5.487.527.527,0,0,1-.124.367.463.463,0,0,1-.331.166h-.022Zm-.412-.51.436.023.022-.024c0-.012,0-.017-.022-.022ZM38.569,7.2h-.007a4.088,4.088,0,0,1-1.429-.671l-.459-.355.561-.083a3.934,3.934,0,0,1,1.557.119,4.02,4.02,0,0,1,1.437.673l.456.353-.558.085a2.949,2.949,0,0,1-.466.035A4.492,4.492,0,0,1,38.569,7.2Zm.106-.475c.137.035.282.067.435.092-.148-.054-.292-.1-.428-.136s-.275-.064-.425-.09C38.4,6.648,38.542,6.691,38.675,6.729ZM1.257,6.452A4.872,4.872,0,0,1,2.842,5.364a.42.42,0,0,1,.323-.023,4.421,4.421,0,0,1,1.33.664L5,6.387l-.615.062a4.08,4.08,0,0,1-1.287-.1,4.564,4.564,0,0,1-1.661.517l-.611.052Zm1.154-.32c.2-.08.388-.171.56-.259l.071-.035.077.017.135.029c-.07-.027-.145-.051-.223-.078A6.414,6.414,0,0,0,2.411,6.132Zm3.341.182a2.443,2.443,0,0,1-1.073-.649l-.3-.32.411-.092a2.348,2.348,0,0,1,1.221.081,2.491,2.491,0,0,1,1.071.65l.3.32L6.97,6.4a2.075,2.075,0,0,1-.438.047A2.682,2.682,0,0,1,5.752,6.314Zm.129-.467a3.006,3.006,0,0,0,.309.075A3.075,3.075,0,0,0,5.883,5.8a2.954,2.954,0,0,0-.312-.075A2.892,2.892,0,0,0,5.88,5.848Zm2.843.059-.4-.217.4-.217A2.68,2.68,0,0,1,9.984,5.18h.009a2.653,2.653,0,0,1,1.261.293l.4.217-.4.217A2.632,2.632,0,0,1,9.994,6.2,2.66,2.66,0,0,1,8.723,5.907Zm.923-.217a3.3,3.3,0,0,0,.347.023,3.25,3.25,0,0,0,.344-.023c-.121-.014-.237-.019-.349-.022S9.764,5.676,9.646,5.69ZM62.3,5.919H62.3a4.073,4.073,0,0,1-1.431-.671l-.458-.354.56-.085a3.939,3.939,0,0,1,1.559.119,4.039,4.039,0,0,1,1.439.675l.453.352-.554.085a2.98,2.98,0,0,1-.467.036A4.466,4.466,0,0,1,62.3,5.919Zm.108-.473c.137.034.284.067.437.092-.149-.054-.294-.1-.432-.138s-.275-.064-.425-.09C62.136,5.364,62.278,5.408,62.411,5.446ZM2.054,5.2a.524.524,0,0,1-.163-.351.5.5,0,0,1,.438-.545.314.314,0,0,1,.083,0l3.659.265V5.06L2.4,5.326l-.035,0A.457.457,0,0,1,2.054,5.2Zm.31-.409c-.012,0-.02.011-.019.025l.022.02.317-.023-.317-.022h0Z" transform="translate(-89 9)"/></g></svg>